<svg xmlns="http://www.w3.org/2000/svg" xmlns:xlink="http://www.w3.org/1999/xlink" width="32" height="32" viewBox="0 0 32 32">
  <defs>
    <clipPath id="clip-path">
      <rect id="Rectangle_58830" data-name="Rectangle 58830" width="26.329" height="21.414" fill="none"/>
    </clipPath>
  </defs>
  <g id="Group_215020" data-name="Group 215020" transform="translate(1107 6564)">
    <rect id="Rectangle_58829" data-name="Rectangle 58829" width="32" height="32" rx="4" transform="translate(-1107 -6564)" fill="rgba(243,240,248,0)"/>
    <g id="Group_215019" data-name="Group 215019" transform="translate(-1104 -6558.207)" clip-path="url(#clip-path)">
      <path id="Path_172576" data-name="Path 172576" d="M26.329,11.669c-.206.175-.107.43-.14.638a10.738,10.738,0,0,1-5.273,7.677,10.528,10.528,0,0,1-6.264,1.388,10.357,10.357,0,0,1-4.915-1.735,8.916,8.916,0,0,1-1.041-.78l-.056-.04c-.214-.208-.433-.411-.64-.625a.394.394,0,0,0-.311-.134c-1.045.005-2.09-.021-3.133.01A1.744,1.744,0,0,1,2.9,16.82a1.664,1.664,0,0,1,1.523-2.078c.417,0,.835,0,1.285,0a8.968,8.968,0,0,1-.6-1.883,7.583,7.583,0,0,1-.162-1.012c-.015-.141-.071-.141-.174-.141-1.087,0-2.175-.012-3.262,0a1.4,1.4,0,0,1-.8-.281A1.687,1.687,0,0,1,.55,8.79,1.735,1.735,0,0,1,1.695,8.38q1.592-.021,3.185,0c.227,0,.319-.076.353-.276a9.492,9.492,0,0,1,.548-1.682l.037-.052.011-.05.039-.055A8.027,8.027,0,0,1,6.227,5.5c.1-.016.176-.1.12-.171a.188.188,0,0,0-.272.018c-.865,0-1.73-.013-2.595,0a1.666,1.666,0,0,1-.436-3.263,1.975,1.975,0,0,1,.494-.073q2.787-.006,5.575,0a.687.687,0,0,0,.416-.135,10.682,10.682,0,0,1,3.608-1.6A11.6,11.6,0,0,1,15.892,0a10.8,10.8,0,0,1,3.3.617A10.759,10.759,0,0,1,24.54,4.772a10.894,10.894,0,0,1,1.579,3.835c.075.366.109.74.165,1.109,0,.019.03.033.046.05v.72q-.1.077,0,.154v.1a.124.124,0,0,0,0,.206Zm-3.291,2.361a7.959,7.959,0,0,0,.484-1.472,8.784,8.784,0,0,0,.2-2.384,10.877,10.877,0,0,0-.478-2.357L23.2,7.762a8.088,8.088,0,0,0-.422-.923l-.041-.054A7.28,7.28,0,0,0,21.4,4.979a8.114,8.114,0,0,0-4-2.21c-.377-.082-.759-.111-1.138-.172a4.962,4.962,0,0,0-1.229-.037,8.924,8.924,0,0,0-1.849.361,8.216,8.216,0,0,0-3.078,1.766A8.452,8.452,0,0,0,8.667,6.469,8.19,8.19,0,0,0,7.481,10.16a7.929,7.929,0,0,0,.3,2.769A5.77,5.77,0,0,0,8.545,14.7c.013.093.028.186.143.21a1.3,1.3,0,0,0,.089.205,8.144,8.144,0,0,0,2.105,2.213,8.284,8.284,0,0,0,4.832,1.541,8.51,8.51,0,0,0,1.027-.108,4.728,4.728,0,0,0,1.268-.3l.108-.005a5.593,5.593,0,0,1,.819-.338,6.827,6.827,0,0,0,1.268-.711A7.667,7.667,0,0,0,21.8,15.973,8.111,8.111,0,0,0,23,14.084l.039-.055" transform="translate(0 0)" fill="#6965c2"/>
      <path id="Path_172577" data-name="Path 172577" d="M382.517,156.591a.124.124,0,0,1,0-.206Z" transform="translate(-356.188 -145.642)" fill="#020202"/>
      <path id="Path_172578" data-name="Path 172578" d="M382.582,152.8q-.1-.077,0-.154Z" transform="translate(-356.252 -142.157)" fill="#020202"/>
      <path id="Path_172579" data-name="Path 172579" d="M88.427,76.935a.188.188,0,0,1,.272-.018c.057.069-.017.154-.12.171l-.152-.152" transform="translate(-82.352 -71.586)" fill="#020202"/>
      <path id="Path_172580" data-name="Path 172580" d="M84.847,91.221l-.039.055c-.012-.037.011-.047.039-.055" transform="translate(-78.978 -84.954)" fill="#020202"/>
      <path id="Path_172581" data-name="Path 172581" d="M84.126,92.75l-.037.052c-.015-.037.009-.046.037-.052" transform="translate(-78.308 -86.378)" fill="#020202"/>
      <path id="Path_172582" data-name="Path 172582" d="M125.771,273.892l.056.04c-.037.012-.048-.012-.056-.04" transform="translate(-117.131 -255.076)" fill="#020202"/>
      <path id="Path_172583" data-name="Path 172583" d="M119.076,52.868a4.728,4.728,0,0,1-1.268.3,8.511,8.511,0,0,1-1.027.108,8.284,8.284,0,0,1-4.832-1.541,8.142,8.142,0,0,1-2.1-2.213,1.291,1.291,0,0,1-.089-.2c.026-.12-.011-.2-.143-.21a5.771,5.771,0,0,1-.761-1.768,7.928,7.928,0,0,1-.3-2.769,8.19,8.19,0,0,1,1.186-3.691,8.456,8.456,0,0,1,1.442-1.782,8.217,8.217,0,0,1,3.078-1.766,8.915,8.915,0,0,1,1.849-.361,4.958,4.958,0,0,1,1.229.037c.378.06.76.09,1.138.172a8.113,8.113,0,0,1,4,2.21,7.279,7.279,0,0,1,1.337,1.807c-.011.037.011.048.041.054a8.079,8.079,0,0,1,.422.923c-.011.037.011.048.041.054a10.877,10.877,0,0,1,.478,2.357,8.781,8.781,0,0,1-.2,2.384,7.967,7.967,0,0,1-.484,1.472c-.028.007-.052.018-.039.055a8.11,8.11,0,0,1-1.2,1.889,7.668,7.668,0,0,1-1.592,1.428,6.825,6.825,0,0,1-1.268.711,5.6,5.6,0,0,0-.819.338c-.012-.043-.01-.106-.078-.092-.052.011-.037.059-.03.1m-8.234-10.9c.025.068-.029.115-.054.162a6.445,6.445,0,0,0-.41,4.949,6.663,6.663,0,0,0,1.909,2.941,6.3,6.3,0,0,0,4,1.666,6.852,6.852,0,0,0,1.962-.157,5.9,5.9,0,0,0,1.663-.674,6.916,6.916,0,0,0,2.1-1.889,6.643,6.643,0,0,0,1.084-2.4,6.182,6.182,0,0,0,.123-2.3,6.7,6.7,0,0,0-.746-2.276,6.535,6.535,0,0,0-2.616-2.643,6.338,6.338,0,0,0-2.5-.774,6.709,6.709,0,0,0-2.481.2,6.572,6.572,0,0,0-1.838.834,7.741,7.741,0,0,0-1.489,1.361c-.271.3-.439.671-.708.969l-.037,0,.036.035" transform="translate(-101.066 -34.414)" fill="#fff"/>
      <path id="Path_172584" data-name="Path 172584" d="M124.379,213.945c.133.012.169.089.143.21-.116-.023-.13-.116-.143-.21" transform="translate(-115.834 -199.247)" fill="#020202"/>
      <path id="Path_172585" data-name="Path 172585" d="M262.058,267.284c-.006-.038-.022-.086.03-.1.068-.014.066.048.078.092l-.108.005" transform="translate(-244.048 -248.83)" fill="#020202"/>
      <path id="Path_172586" data-name="Path 172586" d="M331.016,98.83c-.03-.006-.052-.017-.041-.054l.041.054" transform="translate(-308.234 -91.99)" fill="#020202"/>
      <path id="Path_172587" data-name="Path 172587" d="M337.753,113.047c-.03-.006-.052-.017-.041-.054l.041.054" transform="translate(-314.509 -105.231)" fill="#020202"/>
      <path id="Path_172588" data-name="Path 172588" d="M334.73,204.269c-.013-.037.011-.047.039-.055l-.039.055" transform="translate(-311.731 -190.185)" fill="#020202"/>
      <path id="Path_172589" data-name="Path 172589" d="M131.715,63.361c.27-.3.438-.67.708-.969a7.743,7.743,0,0,1,1.489-1.361,6.574,6.574,0,0,1,1.838-.834,6.711,6.711,0,0,1,2.482-.2,6.337,6.337,0,0,1,2.5.774,6.535,6.535,0,0,1,2.616,2.643,6.7,6.7,0,0,1,.746,2.276,6.183,6.183,0,0,1-.123,2.3,6.643,6.643,0,0,1-1.084,2.4,6.917,6.917,0,0,1-2.1,1.889,5.9,5.9,0,0,1-1.664.674,6.854,6.854,0,0,1-1.962.157,6.3,6.3,0,0,1-4-1.666,6.664,6.664,0,0,1-1.909-2.941,6.152,6.152,0,0,1-.3-2.433,6.214,6.214,0,0,1,.707-2.516c.026-.047.079-.094.054-.162q0-.02,0-.039m5.082,1.227c0,.839,0,1.678,0,2.518,0,.147.02.206.19.2q1.747-.013,3.494,0c.156,0,.2-.035.2-.2q-.019-.577,0-1.156c.005-.159-.039-.2-.2-.2-.625.01-1.251-.01-1.875.011-.24.008-.272-.072-.27-.284.01-1.122,0-2.244.009-3.365,0-.179-.043-.234-.225-.227-.376.014-.754.014-1.13,0-.165-.006-.2.048-.195.2.007.831,0,1.661,0,2.492" transform="translate(-121.938 -55.842)" fill="#827bd7"/>
      <path id="Path_172590" data-name="Path 172590" d="M141.816,109.444c0,.013,0,.026,0,.039l-.036-.035.037,0" transform="translate(-132.039 -101.925)" fill="#020202"/>
      <path id="Path_172591" data-name="Path 172591" d="M216.252,90.78c0-.831,0-1.661,0-2.492,0-.153.029-.208.195-.2.376.014.754.014,1.13,0,.182-.007.227.049.225.227-.008,1.122,0,2.244-.009,3.365,0,.211.029.292.27.284.624-.021,1.25,0,1.875-.011.159,0,.2.039.2.2q-.018.577,0,1.156c.005.161-.043.2-.2.2q-1.747-.01-3.494,0c-.17,0-.191-.058-.19-.2.006-.839,0-1.678,0-2.518" transform="translate(-201.392 -82.034)" fill="#5ef8a1"/>
    </g>
  </g>
</svg>
