<svg xmlns="http://www.w3.org/2000/svg" xmlns:xlink="http://www.w3.org/1999/xlink" width="32" height="32" viewBox="0 0 32 32">
  <defs>
    <clipPath id="clip-path">
      <rect id="Rectangle_58833" data-name="Rectangle 58833" width="19.747" height="25.923" fill="none"/>
    </clipPath>
  </defs>
  <g id="Group_215023" data-name="Group 215023" transform="translate(879 6655)">
    <rect id="Rectangle_58832" data-name="Rectangle 58832" width="32" height="32" rx="4" transform="translate(-879 -6655)" fill="rgba(243,240,248,0)"/>
    <g id="Group_215022" data-name="Group 215022" transform="translate(-872.918 -6651.461)" clip-path="url(#clip-path)">
      <path id="Path_172592" data-name="Path 172592" d="M52.276.056c.286.049.573.094.858.147a7.381,7.381,0,0,1,3.39,1.48,3.783,3.783,0,0,1,1.447,2.281,2.734,2.734,0,0,1-.3,1.968.267.267,0,0,1-.278.144c-.835,0-1.669,0-2.5,0q-4.932,0-9.863,0a.322.322,0,0,1-.344-.2c-.133-.256-.17-.545-.321-.8-.053-.089.028-.3.021-.452a3.5,3.5,0,0,1,1.3-2.795A6.352,6.352,0,0,1,48.194.456,6.935,6.935,0,0,1,49.943.1a.5.5,0,0,0,.31-.1h1.873c.023.089.1.032.15.056" transform="translate(-41.343)" fill="#6c62c8"/>
      <path id="Path_172593" data-name="Path 172593" d="M159.558.056c-.048-.025-.126.033-.15-.056h.152l0,.056" transform="translate(-148.624)" fill="#fdfdfd"/>
      <path id="Path_172594" data-name="Path 172594" d="M86.09,271.585a3.982,3.982,0,0,1,1.124,1.528c-.011.036.011.047.04.053a6.26,6.26,0,0,1,.258,1.776c-.013,1.045-.008,2.091,0,3.137,0,.182-.023.257-.237.254-.936-.014-1.872-.01-2.808,0-.152,0-.219-.043-.252-.192a6.263,6.263,0,0,0-1.083-2.338,6.607,6.607,0,0,0-2.294-1.98,6.2,6.2,0,0,0-1.954-.667,6.6,6.6,0,0,0-1.43-.13,5.825,5.825,0,0,0-1.924.357.281.281,0,0,1-.354-.07q-1.194-1.2-2.394-2.4c-.04-.04-.115-.073-.1-.134.026-.089.115-.043.174-.043,3.575,0,7.15-.01,10.725.005a3.971,3.971,0,0,1,1.916.454c.187.1.357.233.535.351.008.028.02.051.056.039" transform="translate(-67.765 -252.41)" fill="#705ecf"/>
      <path id="Path_172595" data-name="Path 172595" d="M76.1,149.42a4.47,4.47,0,0,0,1.176-.454c.207-.106.4-.236.645-.38-.033.529.035,1.022-.042,1.521a2.365,2.365,0,0,1-.114.793l-.036,0,.035.033a2.722,2.722,0,0,1-.308,1.1,5.281,5.281,0,0,1-1.13,1.72c-.147.158-.323.288-.486.431-.038-.011-.049.015-.059.042a5.092,5.092,0,0,1-5.147.743,5.656,5.656,0,0,1-2.974-3,4.579,4.579,0,0,1-.32-1.178,20.887,20.887,0,0,1-.06-2.193,5.509,5.509,0,0,0,1.879.855l.049.016a9,9,0,0,0,1.5.342,12.627,12.627,0,0,0,2.536.1,7.338,7.338,0,0,0,1.074-.119c.365-.071.747-.093,1.115-.178.189-.044.373-.106.56-.161.044.01.088.019.107-.04" transform="translate(-62.725 -138.535)" fill="#8578de"/>
      <path id="Path_172596" data-name="Path 172596" d="M0,278.548c0-.6,0-1.2,0-1.8a3.471,3.471,0,0,1,.671-1.937,3.266,3.266,0,0,1,.993-.942,3.9,3.9,0,0,1,1.046-.507.2.2,0,0,1,.235.054q1.5,1.5,3.005,3.006c.1.1.148.157-.024.284A6.755,6.755,0,0,0,3.4,280.132c-.054.171-.111.343-.152.517-.026.107-.087.127-.181.127-.978,0-1.957,0-2.935,0-.156,0-.127-.092-.127-.18q0-1.025,0-2.049" transform="translate(0 -254.858)" fill="#705ecf"/>
      <path id="Path_172597" data-name="Path 172597" d="M67.364,112.592c-.084-.028-.058-.115-.08-.171-.06-.152-.045-.252.177-.252q5.084.01,10.168,0c.221,0,.275.067.195.29a1.92,1.92,0,0,1-.845.97,7.226,7.226,0,0,1-2.521.877,13.667,13.667,0,0,1-2.8.132,7.936,7.936,0,0,1-1.883-.318,5.193,5.193,0,0,1-1.85-.836,1.176,1.176,0,0,1-.53-.66c.01-.035,0-.047-.037-.037" transform="translate(-62.705 -104.582)" fill="#776ad3"/>
      <path id="Path_172598" data-name="Path 172598" d="M135.292,329.772l.111.2c-.011.036.011.047.04.052a3.888,3.888,0,0,1,.388,1.01c-.793,0-1.582,0-2.372,0a.252.252,0,0,1-.2-.081q-1.784-1.788-3.575-3.576a5.243,5.243,0,0,1,5.563,2.339c-.01.037.01.048.042.05" transform="translate(-120.915 -305.121)" fill="#00c843"/>
      <path id="Path_172599" data-name="Path 172599" d="M71.983,339.821a4.49,4.49,0,0,1,1.491-1.451c.1-.065.189-.1.305.014.965.977,1.939,1.945,2.912,2.918-.059.068-.13.034-.191.034-1.679,0-3.357,0-5.036.006-.2,0-.273-.027-.181-.239a4.537,4.537,0,0,1,.66-1.224c.026-.011.054-.02.039-.058" transform="translate(-66.425 -315.423)" fill="#00c843"/>
      <path id="Path_172600" data-name="Path 172600" d="M196.178,160.592c-.019.059-.062.05-.107.04,0-.1.06-.056.107-.04" transform="translate(-182.807 -149.707)" fill="#fdfdfd"/>
      <path id="Path_172601" data-name="Path 172601" d="M95.1,160.738l-.049-.016.034-.054.014.07" transform="translate(-88.626 -149.799)" fill="#fdfdfd"/>
      <path id="Path_172602" data-name="Path 172602" d="M68.879,118.367c.034-.01.047,0,.037.037l-.037-.037" transform="translate(-64.219 -110.357)" fill="#fdfdfd"/>
      <path id="Path_172603" data-name="Path 172603" d="M221.77,182.827l-.035-.033.036,0c0,.012,0,.025,0,.037" transform="translate(-206.735 -170.425)" fill="#fdfdfd"/>
      <path id="Path_172604" data-name="Path 172604" d="M192.944,231.354c.011-.027.022-.053.059-.042l-.059.042" transform="translate(-179.892 -215.662)" fill="#fdfdfd"/>
      <path id="Path_172605" data-name="Path 172605" d="M270.123,282.912c-.036.012-.047-.012-.056-.039l.056.039" transform="translate(-251.797 -263.737)" fill="#fdfdfd"/>
      <path id="Path_172606" data-name="Path 172606" d="M287.5,306.1c-.029-.006-.051-.017-.04-.053l.04.053" transform="translate(-268.01 -285.343)" fill="#fdfdfd"/>
      <path id="Path_172607" data-name="Path 172607" d="M81.618,360.673c.015.038-.013.048-.039.058l.039-.058" transform="translate(-76.06 -336.274)" fill="#fdfdfd"/>
      <path id="Path_172608" data-name="Path 172608" d="M211.925,363.711c-.031,0-.052-.013-.042-.05l.042.05" transform="translate(-197.548 -339.06)" fill="#fdfdfd"/>
      <path id="Path_172609" data-name="Path 172609" d="M214.18,367.457c-.029-.006-.051-.016-.04-.052l.04.052" transform="translate(-199.652 -342.551)" fill="#fdfdfd"/>
    </g>
  </g>
</svg>
